<?xml version="1.0" encoding="iso-8859-1"?>
<!-- Generator: Adobe Illustrator 19.0.0, SVG Export Plug-In . SVG Version: 6.00 Build 0)  -->
<svg version="1.1" id="Layer_1" xmlns="http://www.w3.org/2000/svg" xmlns:xlink="http://www.w3.org/1999/xlink" x="0px" y="0px"
	 viewBox="0 0 512 512" style="enable-background:new 0 0 512 512;" xml:space="preserve">
<g>
	<g>
		<path fill="#fa9623" d="M394.667,128h-64c-5.896,0-10.667,4.52-10.667,10.42v64.042c0,5.9,4.771,10.674,10.667,10.674h10.667v7.849
			c0,7.453-3.969,14.468-10.365,18.304l-53.635,32.205V106.399h32c3.875,0,7.448-2.106,9.333-5.504
			c1.875-3.388,1.771-7.536-0.292-10.83l-53.333-85.39c-3.896-6.233-14.188-6.233-18.083,0l-53.333,85.39
			c-2.063,3.294-2.167,7.442-0.292,10.83c1.885,3.398,5.458,5.504,9.333,5.504h32v230.559L192.302,313.4
			c-6.771-3.752-10.969-10.903-10.969-18.648v-22.098c18.802-8.259,32-27.017,32-48.845c0-29.426-23.927-53.143-53.333-53.143
			s-53.333,23.717-53.333,53.143c0,21.828,13.198,40.585,32,48.845v22.098c0,23.255,12.615,44.707,32.917,55.974l63.083,35.074
			v23.986c-18.802,8.259-32,27.017-32,48.845C202.667,488.057,226.594,512,256,512s53.333-23.943,53.333-53.369
			c0-21.828-13.198-40.585-32-48.845v-88.501l75.583-45.389C372.094,264.399,384,243.354,384,220.985v-7.849h10.667
			c5.896,0,10.667-4.774,10.667-10.674V138.42C405.333,132.52,400.562,128,394.667,128z"/>
	</g>
</g>
<g>
</g>
<g>
</g>
<g>
</g>
<g>
</g>
<g>
</g>
<g>
</g>
<g>
</g>
<g>
</g>
<g>
</g>
<g>
</g>
<g>
</g>
<g>
</g>
<g>
</g>
<g>
</g>
<g>
</g>
</svg>
