<?xml version="1.0" encoding="iso-8859-1"?>
<!-- Generator: Adobe Illustrator 19.0.0, SVG Export Plug-In . SVG Version: 6.00 Build 0)  -->
<svg version="1.1" id="Capa_1" xmlns="http://www.w3.org/2000/svg" xmlns:xlink="http://www.w3.org/1999/xlink" x="0px" y="0px"
	 viewBox="0 0 511.9 511.9" style="enable-background:new 0 0 511.9 511.9;" xml:space="preserve">
<g>
	<g>
		<path fill="#fa9623" d="M362.6,0H149.3C119.9,0,96,23.9,96,53.3v405.3c0,29.4,23.9,53.3,53.3,53.3h213.3c29.4,0,53.3-23.9,53.3-53.3V53.3
			C415.9,23.9,392,0,362.6,0z M234.6,42.7h42.7c5.9,0,10.7,4.8,10.7,10.7c0,5.9-4.8,10.7-10.7,10.7h-42.7c-5.9,0-10.7-4.8-10.7-10.7
			C223.9,47.5,228.7,42.7,234.6,42.7z M255.9,469.3c-11.8,0-21.3-9.6-21.3-21.3s9.6-21.3,21.3-21.3c11.8,0,21.3,9.6,21.3,21.3
			S267.7,469.3,255.9,469.3z M394.6,384H117.3V106.7h277.3V384z"/>
	</g>
</g>
<g>
</g>
<g>
</g>
<g>
</g>
<g>
</g>
<g>
</g>
<g>
</g>
<g>
</g>
<g>
</g>
<g>
</g>
<g>
</g>
<g>
</g>
<g>
</g>
<g>
</g>
<g>
</g>
<g>
</g>
</svg>
